<svg width="24" height="16" viewBox="0 0 24 16" fill="none" xmlns="http://www.w3.org/2000/svg">
<path d="M18.7937 15.0375C18.0154 15.0472 17.2423 14.91 16.5148 14.6333C15.863 14.3798 15.2741 13.9877 14.7888 13.4842C14.3108 12.9697 13.9416 12.3638 13.7034 11.7031C13.4418 10.9722 13.3122 10.2004 13.3208 9.42418C13.3152 8.66123 13.4485 7.90368 13.7142 7.18846C13.9618 6.52158 14.343 5.91216 14.8344 5.39773C15.3271 4.88967 15.9158 4.48443 16.5664 4.20552C17.271 3.90744 18.0299 3.75918 18.7949 3.77013C19.6171 3.75256 20.4313 3.9336 21.1686 4.29787C21.8267 4.63541 22.3974 5.12114 22.8357 5.71677C23.278 6.32524 23.597 7.01419 23.7749 7.74499C23.969 8.52186 24.0383 9.32475 23.98 10.1234H16.2665C16.2358 10.8821 16.4959 11.6238 16.9934 12.1972C17.5161 12.6558 18.1995 12.8879 18.8933 12.8425C19.4382 12.8552 19.9736 12.699 20.4261 12.3951C20.7853 12.1759 21.0611 11.8427 21.2093 11.4488H23.7941C23.5012 12.5627 22.8272 13.5388 21.8894 14.2075C20.9612 14.7816 19.8847 15.0702 18.7937 15.0375ZM18.7109 5.98904C18.3079 5.97393 17.9072 6.05621 17.5427 6.22893C17.2577 6.37262 17.0048 6.57256 16.7991 6.81664C16.6181 7.03841 16.4842 7.29473 16.4057 7.56988C16.3365 7.79921 16.2917 8.03525 16.2725 8.27394H21.0486C21.0142 7.65192 20.7771 7.05845 20.3733 6.58395C19.9266 6.16224 19.3238 5.94646 18.7109 5.98904ZM7.16053 14.7592H0V0.000352219H6.95663C7.60108 -0.00529705 8.24433 0.057025 8.8757 0.186263C9.41049 0.29066 9.92004 0.497572 10.3762 0.795568C10.7882 1.08155 11.1189 1.46963 11.3357 1.92182C11.5752 2.46652 11.6899 3.05784 11.6716 3.65258C11.6976 4.31059 11.5232 4.96097 11.1714 5.51767C10.7865 6.04913 10.2663 6.46785 9.66492 6.73028C10.4821 6.93455 11.2004 7.42199 11.6919 8.10602C12.1486 8.80984 12.3796 9.63624 12.354 10.4749C12.3714 11.1456 12.224 11.8103 11.9246 12.4107C11.6484 12.9433 11.2477 13.4012 10.7564 13.7457C10.2471 14.1 9.67836 14.36 9.07721 14.5133C8.44964 14.6781 7.8034 14.7612 7.15454 14.7604L7.16053 14.7592ZM3.25043 8.18278V12.2488H6.71675C7.02309 12.2522 7.32885 12.2211 7.62831 12.1565C7.90246 12.1036 8.16338 11.9967 8.39594 11.8422C8.61989 11.6949 8.80175 11.492 8.92368 11.2533C9.06509 10.9539 9.13177 10.6246 9.11799 10.2938C9.17612 9.67978 8.93825 9.07491 8.4775 8.66495C7.98037 8.32275 7.38424 8.15412 6.78152 8.18518L3.25043 8.18278ZM3.25043 2.51554V5.96385H6.53924C7.04798 5.98389 7.54954 5.83876 7.96894 5.55005C8.3643 5.22177 8.57248 4.71967 8.52547 4.20792C8.53561 3.91415 8.47298 3.62244 8.34316 3.35873C8.22591 3.14554 8.05306 2.96812 7.843 2.84538C7.62181 2.7142 7.37752 2.62666 7.12335 2.5875C6.84658 2.5356 6.56535 2.5111 6.28376 2.51434L3.25043 2.51554ZM21.6507 2.44837H15.6656V0.991073H21.6507V2.44717V2.44837Z" fill="black"/>
</svg>
