<svg width="48" height="36" viewBox="0 0 48 36" fill="none" xmlns="http://www.w3.org/2000/svg">
<path d="M1.6 17.6L0.114436 17.0058C-0.0381453 17.3872 -0.0381453 17.8128 0.114436 18.1942L1.6 17.6ZM46.4 17.6L47.8854 18.1942C48.0381 17.8128 48.0381 17.3872 47.8854 17.0058L46.4 17.6ZM23.9999 32C16.5951 32 11.3956 28.3146 7.98925 24.5297C6.28496 22.636 5.04995 20.7369 4.24202 19.3112C3.83898 18.5999 3.5447 18.0108 3.3535 17.6052C3.25795 17.4026 3.18832 17.2461 3.14387 17.1435C3.12165 17.0923 3.10574 17.0545 3.09605 17.0312C3.09121 17.0196 3.08792 17.0115 3.08618 17.0073C3.0853 17.0051 3.08482 17.0039 3.08471 17.0036C3.08467 17.0035 3.08471 17.0036 3.08485 17.004C3.08492 17.0042 3.0851 17.0046 3.08514 17.0047C3.08534 17.0052 3.08556 17.0058 1.6 17.6C0.114436 18.1942 0.114711 18.1949 0.115011 18.1956C0.115143 18.196 0.115469 18.1968 0.115735 18.1975C0.116267 18.1988 0.1169 18.2004 0.117632 18.2022C0.119096 18.2058 0.12096 18.2104 0.123224 18.2159C0.127754 18.227 0.133888 18.242 0.141641 18.2606C0.157145 18.2979 0.179127 18.35 0.20769 18.4158C0.264805 18.5476 0.348301 18.7349 0.459005 18.9698C0.680294 19.4392 1.01102 20.1001 1.45796 20.8888C2.35002 22.4631 3.71498 24.564 5.61069 26.6704C9.40435 30.8854 15.4048 35.2 23.9999 35.2V32ZM1.6 17.6C3.08556 18.1942 3.08534 18.1948 3.08514 18.1953C3.0851 18.1954 3.08492 18.1958 3.08485 18.196C3.08471 18.1964 3.08467 18.1965 3.08471 18.1964C3.08482 18.1961 3.0853 18.1949 3.08618 18.1927C3.08792 18.1885 3.09121 18.1804 3.09605 18.1688C3.10574 18.1455 3.12165 18.1077 3.14387 18.0565C3.18832 17.9539 3.25795 17.7974 3.3535 17.5948C3.5447 17.1892 3.83898 16.6001 4.24202 15.8888C5.04995 14.4631 6.28496 12.564 7.98925 10.6703C11.3956 6.88554 16.5951 3.2 23.9999 3.2V0C15.4048 0 9.40435 4.31446 5.61069 8.52966C3.71498 10.636 2.35002 12.7369 1.45796 14.3112C1.01102 15.0999 0.680294 15.7608 0.459005 16.2302C0.348301 16.4651 0.264805 16.6524 0.20769 16.7842C0.179127 16.85 0.157145 16.9021 0.141641 16.9394C0.133888 16.958 0.127754 16.973 0.123224 16.9841C0.12096 16.9896 0.119096 16.9942 0.117632 16.9978C0.1169 16.9996 0.116267 17.0012 0.115735 17.0025C0.115469 17.0032 0.115143 17.004 0.115011 17.0044C0.114711 17.0051 0.114436 17.0058 1.6 17.6ZM23.9999 3.2C31.4048 3.2 36.6045 6.88554 40.0106 10.6703C41.7149 12.564 42.9501 14.4631 43.7581 15.8888C44.161 16.6001 44.4554 17.1892 44.6464 17.5948C44.7421 17.7974 44.8118 17.9539 44.856 18.0565C44.8784 18.1078 44.8944 18.1455 44.904 18.1688C44.9088 18.1804 44.912 18.1885 44.9139 18.1928C44.9146 18.1949 44.9152 18.1961 44.9152 18.1964C44.9152 18.1965 44.9152 18.1964 44.9152 18.196C44.9152 18.1958 44.9149 18.1954 44.9149 18.1953C44.9146 18.1948 44.9146 18.1942 46.4 17.6C47.8854 17.0058 47.8854 17.0051 47.8851 17.0043C47.8848 17.004 47.8845 17.0032 47.8842 17.0025C47.8838 17.0012 47.8832 16.9996 47.8822 16.9978C47.881 16.9942 47.879 16.9896 47.8768 16.9841C47.8723 16.973 47.8662 16.958 47.8582 16.9394C47.8429 16.9021 47.8208 16.85 47.7923 16.7841C47.735 16.6523 47.6518 16.4651 47.5411 16.2302C47.3197 15.7608 46.9891 15.0999 46.5421 14.3112C45.6499 12.7369 44.2851 10.636 42.3891 8.52966C38.5955 4.31446 32.5952 0 23.9999 0V3.2ZM46.4 17.6C44.9146 17.0058 44.9146 17.0052 44.9149 17.0047C44.9149 17.0046 44.9152 17.0042 44.9152 17.004C44.9152 17.0036 44.9152 17.0035 44.9152 17.0036C44.9152 17.0039 44.9146 17.0051 44.9139 17.0072C44.912 17.0115 44.9088 17.0196 44.904 17.0312C44.8944 17.0545 44.8784 17.0922 44.856 17.1435C44.8118 17.2461 44.7421 17.4026 44.6464 17.6052C44.4554 18.0108 44.161 18.5999 43.7581 19.3112C42.9501 20.7369 41.7149 22.636 40.0106 24.5297C36.6045 28.3146 31.4048 32 23.9999 32V35.2C32.5952 35.2 38.5955 30.8854 42.3891 26.6704C44.2851 24.564 45.6499 22.4631 46.5421 20.8888C46.9891 20.1001 47.3197 19.4392 47.5411 18.9698C47.6518 18.7349 47.735 18.5477 47.7923 18.4159C47.8208 18.35 47.8429 18.2979 47.8582 18.2606C47.8662 18.242 47.8723 18.227 47.8768 18.2159C47.879 18.2104 47.881 18.2058 47.8822 18.2022C47.8832 18.2004 47.8838 18.1988 47.8842 18.1975C47.8845 18.1968 47.8848 18.196 47.8851 18.1957C47.8854 18.1949 47.8854 18.1942 46.4 17.6ZM24 22.4C21.349 22.4 19.2 20.251 19.2 17.6H16C16 22.0183 19.5817 25.6 24 25.6V22.4ZM28.8 17.6C28.8 20.251 26.651 22.4 24 22.4V25.6C28.4183 25.6 32 22.0183 32 17.6H28.8ZM24 12.8C26.651 12.8 28.8 14.949 28.8 17.6H32C32 13.1817 28.4183 9.6 24 9.6V12.8ZM24 9.6C19.5817 9.6 16 13.1817 16 17.6H19.2C19.2 14.949 21.349 12.8 24 12.8V9.6Z" fill="black"/>
</svg>
