<svg width="12" height="20" viewBox="0 0 12 20" fill="none" xmlns="http://www.w3.org/2000/svg">
<path d="M6.66667 7.77778H11.6667L11.1111 10H6.66667V20H4.44444V10H0V7.77778H4.44444V5.69778C4.44444 3.71667 4.65111 2.99778 5.03778 2.27333C5.41668 1.55756 6.00201 0.972233 6.71778 0.593333C7.44222 0.206667 8.16111 0 10.1422 0C10.7222 0 11.2311 0.0555557 11.6667 0.166667V2.22222H10.1422C8.67111 2.22222 8.22333 2.30889 7.76667 2.55333C7.42889 2.73333 7.17778 2.98444 6.99778 3.32222C6.75333 3.77889 6.66667 4.22667 6.66667 5.69778V7.77778Z" fill="black"/>
</svg>
