<svg width="39" height="35" viewBox="0 0 39 35" fill="none" xmlns="http://www.w3.org/2000/svg">
<path d="M34.026 18.1668L19.026 33.0228L4.02599 18.1668M4.02599 18.1668C3.0366 17.204 2.25728 16.0468 1.73709 14.7681C1.2169 13.4893 0.967116 12.1167 1.00347 10.7367C1.03982 9.35665 1.36152 7.99909 1.94831 6.74949C2.5351 5.49989 3.37426 4.38532 4.41297 3.47597C5.45167 2.56663 6.6674 1.88219 7.98362 1.46578C9.29983 1.04936 10.688 0.909982 12.0607 1.05642C13.4335 1.20285 14.761 1.63193 15.9597 2.31663C17.1585 3.00133 18.2025 3.92682 19.026 5.03481C19.8531 3.93486 20.8983 3.01746 22.0962 2.34002C23.2941 1.66259 24.619 1.23971 25.9879 1.09785C27.3567 0.955996 28.7402 1.09821 30.0515 1.5156C31.3629 1.93299 32.574 2.61656 33.6091 3.52354C34.6441 4.43052 35.4808 5.54138 36.0668 6.7866C36.6528 8.03182 36.9755 9.38458 37.0146 10.7602C37.0537 12.1359 36.8085 13.5048 36.2943 14.7813C35.78 16.0578 35.0078 17.2145 34.026 18.1788" stroke="black" stroke-width="2" stroke-linecap="round" stroke-linejoin="round"/>
</svg>
